<svg xmlns="http://www.w3.org/2000/svg" width="1200" height="630" viewBox="0 0 1200 630" role="img" aria-label="">
  <defs>
    <linearGradient id="roi-bg" x1="0" y1="0" x2="1" y2="1">
      <stop offset="0%" stop-color="#FAFBFC"/>
      <stop offset="100%" stop-color="#E8EEF5"/>
    </linearGradient>
  </defs>
  <rect width="1200" height="630" fill="url(#roi-bg)"/>
  <rect x="0" y="0" width="1200" height="6" fill="#C96A4A"/>
  <circle cx="1020" cy="140" r="120" fill="#C96A4A" fill-opacity="0.1"/>
  <circle cx="1080" cy="500" r="160" fill="#0B1F33" fill-opacity="0.06"/>
  <rect x="80" y="120" width="140" height="8" rx="4" fill="#C96A4A" fill-opacity="0.9"/>
  <rect x="80" y="160" width="320" height="8" rx="4" fill="#0B1F33" fill-opacity="0.14"/>
  <rect x="80" y="190" width="260" height="8" rx="4" fill="#0B1F33" fill-opacity="0.1"/>
  <rect x="560" y="220" width="520" height="280" rx="16" fill="#FFFFFF" stroke="#0B1F33" stroke-opacity="0.1"/>
  <rect x="610" y="420" width="48" height="60" rx="6" fill="#0B1F33" fill-opacity="0.12"/>
  <rect x="680" y="380" width="48" height="100" rx="6" fill="#0B1F33" fill-opacity="0.16"/>
  <rect x="750" y="340" width="48" height="140" rx="6" fill="#C96A4A" fill-opacity="0.75"/>
  <rect x="820" y="300" width="48" height="180" rx="6" fill="#C96A4A" fill-opacity="0.9"/>
  <rect x="610" y="250" width="170" height="14" rx="4" fill="#0B1F33" fill-opacity="0.82"/>
  <rect x="610" y="278" width="120" height="10" rx="4" fill="#6B7D92" fill-opacity="0.55"/>
  <polyline points="80,480 220,380 360,420 500,300 640,340 780,240" fill="none" stroke="#C96A4A" stroke-width="4" stroke-linecap="round" stroke-linejoin="round"/>
  <circle cx="780" cy="240" r="10" fill="#C96A4A"/>
</svg>
